# xmcd CD database file
#
# Track frame offsets:
#	150
#	6476
#	32047
#	57172
#	79627
#	113632
#	139537
#	163725
#	186660
#	214860
#	238417
#
# Disc length: 3392 seconds
#
# Revision: 0
# Processed by: cddbd v1.5.1PL0 Copyright (c) Steve Scherf et al.
# Submitted via: CDex 1.51
#
DISCID=9a0d3e0b
DTITLE=ARCADIA - Tales of Fantasia
DYEAR=2005
DGENRE=Heavy Metal
TTITLE0=FANTASIA
TTITLE1=NEVER ENDING FIRE
TTITLE2=HOLY LIGHT
TTITLE3=WARRIOR
TTITLE4=LAND OF TRAGEDY
TTITLE5=TALES OF RED STARLIGHT
TTITLE6=RETURN OF THE KING
TTITLE7=LOOK UP TO THE SKY
TTITLE8=FIGHT FOR YOUR AIM
TTITLE9=ARCADIA
TTITLE10=RAIN FOREST
EXTD=YEAR: 2005
EXTT0=
EXTT1=
EXTT2=
EXTT3=
EXTT4=
EXTT5=
EXTT6=
EXTT7=
EXTT8=
EXTT9=
EXTT10=
PLAYORDER=
